<svg height="512" viewBox="0 0 128 128" width="512" xmlns="http://www.w3.org/2000/svg"><g id="Circle_Grid" data-name="Circle Grid"><circle cx="64" cy="64" fill="#3b5059" r="64"/></g><g id="icon"><path d="m68.093 50.012h-8.115l-7.189-22.02h8.115z" fill="#ef5261"/><path d="m101.1 45.912h-74.2a3.9 3.9 0 0 0 -3.9 3.895v46.306a3.893 3.893 0 0 0 3.9 3.9h74.2a3.893 3.893 0 0 0 3.9-3.9v-46.306a3.9 3.9 0 0 0 -3.9-3.895zm-31.753 5.757h-10.694a1.657 1.657 0 1 1 0-3.314h10.694a1.657 1.657 0 1 1 0 3.314z" fill="#2cbfae"/><path d="m26.665 54.7v41.419a.229.229 0 0 0 .229.229h74.212a.229.229 0 0 0 .229-.229v-41.419z" fill="#eeefee"/><path d="m38.878 73.5v2.789c3.533 1.867 4.315 1.8 8.078 0v-2.789z" fill="#f4bb87"/><path d="m56.168 85.863v-2.236a5.839 5.839 0 0 0 -3.182-5.2l-6.03-3.179-4.039 1.992-4.039-1.991-6.03 3.179a5.839 5.839 0 0 0 -3.182 5.2v2.236z" fill="#575b6d"/><path d="m43.353 85.863 3.603-10.615-4.039 1.992-4.039-1.992 3.604 10.615z" fill="#eeefee"/><path d="m43.416 78.687h-.997l-.947-1.671 2.889-.005z" fill="#da364c"/><path d="m43.351 85.863 1.012-2.99-.947-4.187h-.998l-.946 4.187 1.011 2.99z" fill="#ef5261"/><path d="m38.878 75.248 4.039 1.763-3.22 1.951z" fill="#dbd8dd"/><path d="m46.956 75.248-4.039 1.763 3.22 1.951z" fill="#dbd8dd"/><path d="m37.418 79.574 4.565 6.289h.498l-3.603-10.615-2.488 3.117 1.761.109z" fill="#414451"/><path d="m43.851 85.863 4.565-6.289-.733-1.1 1.761-.109-2.488-3.117-3.602 10.615z" fill="#414451"/><path d="m37.33 67.523v2.677a.817.817 0 0 1 -.418.116c-.589 0-1.068-.66-1.068-1.463s.479-1.45 1.068-1.45a.816.816 0 0 1 .418.12z" fill="#f4bb87"/><path d="m48.5 67.523v2.677a.817.817 0 0 0 .418.116c.589 0 1.068-.66 1.068-1.463s-.479-1.45-1.068-1.45a.816.816 0 0 0 -.418.12z" fill="#f4bb87"/><path d="m38.224 63.754a4.9 4.9 0 0 0 -.792 1.076 6.922 6.922 0 0 0 -.5 2.559 9 9 0 0 0 .563 4.042 5.041 5.041 0 0 0 1.2 1.925 11.446 11.446 0 0 0 2.026 1.657 4.045 4.045 0 0 0 4.383-.007 12.156 12.156 0 0 0 2.025-1.65 4.914 4.914 0 0 0 1.192-1.925 8.845 8.845 0 0 0 .576-4.042 6.921 6.921 0 0 0 -.5-2.559 4.966 4.966 0 0 0 -.571-1.076c-3.246-1.34-6.461-1.686-9.602 0z" fill="#fed19a"/><path d="m48.89 66.975s3.117-5.957-1.558-7.6c0 0-4.4-5.067-9.824.685 0 0-2.878 3.562-.574 7.191 0 0 1.048-3.528 2.335-3.733a8.427 8.427 0 0 0 7.6-.137 7.484 7.484 0 0 0 2.021 3.594z" fill="#414451"/><path d="m59.907 50.012h8.115l7.189-22.02h-8.115z" fill="#da364c"/><g fill="#dbd8dd"><path d="m61.158 58.393h35.585v2.198h-35.585z"/><path d="m61.158 64.711h35.585v2.198h-35.585z"/><path d="m61.158 71.029h35.585v2.198h-35.585z"/><path d="m61.158 77.347h35.585v2.198h-35.585z"/><path d="m61.158 83.665h35.585v2.198h-35.585z"/><path d="m29.667 89.983h67.076v2.198h-67.076z"/></g></g></svg>